M48
; DRILL file {KiCad (5.1.6)-1} date 07/24/20 15:46:32
; FORMAT={-:-/ absolute / metric / decimal}
; #@! TF.CreationDate,2020-07-24T15:46:32+02:00
; #@! TF.GenerationSoftware,Kicad,Pcbnew,(5.1.6)-1
; #@! TF.FileFunction,Plated,1,2,PTH
FMAT,2
METRIC
T1C0.700
T2C0.900
T3C1.000
T4C2.700
%
G90
G05
T1
X141.5Y-96.0
X134.0Y-96.0
X134.0Y-101.08
X138.0Y-96.0
X138.0Y-101.08
X141.5Y-101.08
T2
X136.5Y-89.0
X139.04Y-89.0
X136.5Y-76.0
X139.04Y-76.0
X136.5Y-82.5
X139.04Y-82.5
T3
X134.0Y-106.0
X136.54Y-106.0
X139.08Y-106.0
X141.62Y-106.0
T4
X128.35Y-78.925
X128.35Y-99.65
X147.275Y-99.45
X147.575Y-79.025
T0
M30
