%TF.GenerationSoftware,KiCad,Pcbnew,(5.1.6)-1*%
%TF.CreationDate,2020-07-24T15:46:23+02:00*%
%TF.ProjectId,Traffic_light_for_arduino,54726166-6669-4635-9f6c-696768745f66,rev?*%
%TF.SameCoordinates,Original*%
%TF.FileFunction,Legend,Top*%
%TF.FilePolarity,Positive*%
%FSLAX46Y46*%
G04 Gerber Fmt 4.6, Leading zero omitted, Abs format (unit mm)*
G04 Created by KiCad (PCBNEW (5.1.6)-1) date 2020-07-24 15:46:23*
%MOMM*%
%LPD*%
G01*
G04 APERTURE LIST*
%ADD10C,0.150000*%
%ADD11C,0.120000*%
G04 APERTURE END LIST*
D10*
X126104761Y-95376190D02*
X124104761Y-95376190D01*
X126104761Y-94233333D02*
X124961904Y-95090476D01*
X124104761Y-94233333D02*
X125247619Y-95376190D01*
X126009523Y-93471428D02*
X126104761Y-93185714D01*
X126104761Y-92709523D01*
X126009523Y-92519047D01*
X125914285Y-92423809D01*
X125723809Y-92328571D01*
X125533333Y-92328571D01*
X125342857Y-92423809D01*
X125247619Y-92519047D01*
X125152380Y-92709523D01*
X125057142Y-93090476D01*
X124961904Y-93280952D01*
X124866666Y-93376190D01*
X124676190Y-93471428D01*
X124485714Y-93471428D01*
X124295238Y-93376190D01*
X124200000Y-93280952D01*
X124104761Y-93090476D01*
X124104761Y-92614285D01*
X124200000Y-92328571D01*
X126104761Y-89947619D02*
X124104761Y-89947619D01*
X124866666Y-89947619D02*
X124771428Y-89757142D01*
X124771428Y-89376190D01*
X124866666Y-89185714D01*
X124961904Y-89090476D01*
X125152380Y-88995238D01*
X125723809Y-88995238D01*
X125914285Y-89090476D01*
X126009523Y-89185714D01*
X126104761Y-89376190D01*
X126104761Y-89757142D01*
X126009523Y-89947619D01*
X126104761Y-87852380D02*
X126009523Y-88042857D01*
X125914285Y-88138095D01*
X125723809Y-88233333D01*
X125152380Y-88233333D01*
X124961904Y-88138095D01*
X124866666Y-88042857D01*
X124771428Y-87852380D01*
X124771428Y-87566666D01*
X124866666Y-87376190D01*
X124961904Y-87280952D01*
X125152380Y-87185714D01*
X125723809Y-87185714D01*
X125914285Y-87280952D01*
X126009523Y-87376190D01*
X126104761Y-87566666D01*
X126104761Y-87852380D01*
X126104761Y-85471428D02*
X125057142Y-85471428D01*
X124866666Y-85566666D01*
X124771428Y-85757142D01*
X124771428Y-86138095D01*
X124866666Y-86328571D01*
X126009523Y-85471428D02*
X126104761Y-85661904D01*
X126104761Y-86138095D01*
X126009523Y-86328571D01*
X125819047Y-86423809D01*
X125628571Y-86423809D01*
X125438095Y-86328571D01*
X125342857Y-86138095D01*
X125342857Y-85661904D01*
X125247619Y-85471428D01*
X126104761Y-84519047D02*
X124771428Y-84519047D01*
X125152380Y-84519047D02*
X124961904Y-84423809D01*
X124866666Y-84328571D01*
X124771428Y-84138095D01*
X124771428Y-83947619D01*
X126104761Y-82423809D02*
X124104761Y-82423809D01*
X126009523Y-82423809D02*
X126104761Y-82614285D01*
X126104761Y-82995238D01*
X126009523Y-83185714D01*
X125914285Y-83280952D01*
X125723809Y-83376190D01*
X125152380Y-83376190D01*
X124961904Y-83280952D01*
X124866666Y-83185714D01*
X124771428Y-82995238D01*
X124771428Y-82614285D01*
X124866666Y-82423809D01*
X131476190Y-107500000D02*
X131285714Y-107452380D01*
X131000000Y-107452380D01*
X130714285Y-107500000D01*
X130523809Y-107595238D01*
X130428571Y-107690476D01*
X130333333Y-107880952D01*
X130333333Y-108023809D01*
X130428571Y-108214285D01*
X130523809Y-108309523D01*
X130714285Y-108404761D01*
X131000000Y-108452380D01*
X131190476Y-108452380D01*
X131476190Y-108404761D01*
X131571428Y-108357142D01*
X131571428Y-108023809D01*
X131190476Y-108023809D01*
X132428571Y-108452380D02*
X132428571Y-107452380D01*
X133571428Y-108452380D01*
X133571428Y-107452380D01*
X134523809Y-108452380D02*
X134523809Y-107452380D01*
X135000000Y-107452380D01*
X135285714Y-107500000D01*
X135476190Y-107595238D01*
X135571428Y-107690476D01*
X135666666Y-107880952D01*
X135666666Y-108023809D01*
X135571428Y-108214285D01*
X135476190Y-108309523D01*
X135285714Y-108404761D01*
X135000000Y-108452380D01*
X134523809Y-108452380D01*
D11*
%TO.C,R3*%
X142420000Y-96620000D02*
X142420000Y-100460000D01*
X140580000Y-96620000D02*
X140580000Y-100460000D01*
%TO.C,R2*%
X138920000Y-96620000D02*
X138920000Y-100460000D01*
X137080000Y-96620000D02*
X137080000Y-100460000D01*
%TO.C,R1*%
X134920000Y-96620000D02*
X134920000Y-100460000D01*
X133080000Y-96620000D02*
X133080000Y-100460000D01*
%TO.C,D3*%
X138811130Y-90079837D02*
G75*
G02*
X136729039Y-90080000I-1041130J1079837D01*
G01*
X138811130Y-87920163D02*
G75*
G03*
X136729039Y-87920000I-1041130J-1079837D01*
G01*
X139442335Y-90078608D02*
G75*
G02*
X136210000Y-90235516I-1672335J1078608D01*
G01*
X139442335Y-87921392D02*
G75*
G03*
X136210000Y-87764484I-1672335J-1078608D01*
G01*
X136210000Y-87764000D02*
X136210000Y-87920000D01*
X136210000Y-90080000D02*
X136210000Y-90236000D01*
%TO.C,D2*%
X138811130Y-83579837D02*
G75*
G02*
X136729039Y-83580000I-1041130J1079837D01*
G01*
X138811130Y-81420163D02*
G75*
G03*
X136729039Y-81420000I-1041130J-1079837D01*
G01*
X139442335Y-83578608D02*
G75*
G02*
X136210000Y-83735516I-1672335J1078608D01*
G01*
X139442335Y-81421392D02*
G75*
G03*
X136210000Y-81264484I-1672335J-1078608D01*
G01*
X136210000Y-81264000D02*
X136210000Y-81420000D01*
X136210000Y-83580000D02*
X136210000Y-83736000D01*
%TO.C,D1*%
X138811130Y-77079837D02*
G75*
G02*
X136729039Y-77080000I-1041130J1079837D01*
G01*
X138811130Y-74920163D02*
G75*
G03*
X136729039Y-74920000I-1041130J-1079837D01*
G01*
X139442335Y-77078608D02*
G75*
G02*
X136210000Y-77235516I-1672335J1078608D01*
G01*
X139442335Y-74921392D02*
G75*
G03*
X136210000Y-74764484I-1672335J-1078608D01*
G01*
X136210000Y-74764000D02*
X136210000Y-74920000D01*
X136210000Y-77080000D02*
X136210000Y-77236000D01*
%TO.C,H4*%
D10*
X146813095Y-75777380D02*
X146813095Y-74777380D01*
X146813095Y-75253571D02*
X147384523Y-75253571D01*
X147384523Y-75777380D02*
X147384523Y-74777380D01*
X148289285Y-75110714D02*
X148289285Y-75777380D01*
X148051190Y-74729761D02*
X147813095Y-75444047D01*
X148432142Y-75444047D01*
%TO.C,H3*%
X127588095Y-75677380D02*
X127588095Y-74677380D01*
X127588095Y-75153571D02*
X128159523Y-75153571D01*
X128159523Y-75677380D02*
X128159523Y-74677380D01*
X128540476Y-74677380D02*
X129159523Y-74677380D01*
X128826190Y-75058333D01*
X128969047Y-75058333D01*
X129064285Y-75105952D01*
X129111904Y-75153571D01*
X129159523Y-75248809D01*
X129159523Y-75486904D01*
X129111904Y-75582142D01*
X129064285Y-75629761D01*
X128969047Y-75677380D01*
X128683333Y-75677380D01*
X128588095Y-75629761D01*
X128540476Y-75582142D01*
%TO.C,H2*%
X146513095Y-96202380D02*
X146513095Y-95202380D01*
X146513095Y-95678571D02*
X147084523Y-95678571D01*
X147084523Y-96202380D02*
X147084523Y-95202380D01*
X147513095Y-95297619D02*
X147560714Y-95250000D01*
X147655952Y-95202380D01*
X147894047Y-95202380D01*
X147989285Y-95250000D01*
X148036904Y-95297619D01*
X148084523Y-95392857D01*
X148084523Y-95488095D01*
X148036904Y-95630952D01*
X147465476Y-96202380D01*
X148084523Y-96202380D01*
%TO.C,H1*%
X127588095Y-96402380D02*
X127588095Y-95402380D01*
X127588095Y-95878571D02*
X128159523Y-95878571D01*
X128159523Y-96402380D02*
X128159523Y-95402380D01*
X129159523Y-96402380D02*
X128588095Y-96402380D01*
X128873809Y-96402380D02*
X128873809Y-95402380D01*
X128778571Y-95545238D01*
X128683333Y-95640476D01*
X128588095Y-95688095D01*
%TO.C,R3*%
X143872380Y-98706666D02*
X143396190Y-99040000D01*
X143872380Y-99278095D02*
X142872380Y-99278095D01*
X142872380Y-98897142D01*
X142920000Y-98801904D01*
X142967619Y-98754285D01*
X143062857Y-98706666D01*
X143205714Y-98706666D01*
X143300952Y-98754285D01*
X143348571Y-98801904D01*
X143396190Y-98897142D01*
X143396190Y-99278095D01*
X142872380Y-98373333D02*
X142872380Y-97754285D01*
X143253333Y-98087619D01*
X143253333Y-97944761D01*
X143300952Y-97849523D01*
X143348571Y-97801904D01*
X143443809Y-97754285D01*
X143681904Y-97754285D01*
X143777142Y-97801904D01*
X143824761Y-97849523D01*
X143872380Y-97944761D01*
X143872380Y-98230476D01*
X143824761Y-98325714D01*
X143777142Y-98373333D01*
%TO.C,R2*%
X140372380Y-98706666D02*
X139896190Y-99040000D01*
X140372380Y-99278095D02*
X139372380Y-99278095D01*
X139372380Y-98897142D01*
X139420000Y-98801904D01*
X139467619Y-98754285D01*
X139562857Y-98706666D01*
X139705714Y-98706666D01*
X139800952Y-98754285D01*
X139848571Y-98801904D01*
X139896190Y-98897142D01*
X139896190Y-99278095D01*
X139467619Y-98325714D02*
X139420000Y-98278095D01*
X139372380Y-98182857D01*
X139372380Y-97944761D01*
X139420000Y-97849523D01*
X139467619Y-97801904D01*
X139562857Y-97754285D01*
X139658095Y-97754285D01*
X139800952Y-97801904D01*
X140372380Y-98373333D01*
X140372380Y-97754285D01*
%TO.C,R1*%
X136372380Y-98706666D02*
X135896190Y-99040000D01*
X136372380Y-99278095D02*
X135372380Y-99278095D01*
X135372380Y-98897142D01*
X135420000Y-98801904D01*
X135467619Y-98754285D01*
X135562857Y-98706666D01*
X135705714Y-98706666D01*
X135800952Y-98754285D01*
X135848571Y-98801904D01*
X135896190Y-98897142D01*
X135896190Y-99278095D01*
X136372380Y-97754285D02*
X136372380Y-98325714D01*
X136372380Y-98040000D02*
X135372380Y-98040000D01*
X135515238Y-98135238D01*
X135610476Y-98230476D01*
X135658095Y-98325714D01*
%TO.C,D3*%
X137031904Y-86492380D02*
X137031904Y-85492380D01*
X137270000Y-85492380D01*
X137412857Y-85540000D01*
X137508095Y-85635238D01*
X137555714Y-85730476D01*
X137603333Y-85920952D01*
X137603333Y-86063809D01*
X137555714Y-86254285D01*
X137508095Y-86349523D01*
X137412857Y-86444761D01*
X137270000Y-86492380D01*
X137031904Y-86492380D01*
X137936666Y-85492380D02*
X138555714Y-85492380D01*
X138222380Y-85873333D01*
X138365238Y-85873333D01*
X138460476Y-85920952D01*
X138508095Y-85968571D01*
X138555714Y-86063809D01*
X138555714Y-86301904D01*
X138508095Y-86397142D01*
X138460476Y-86444761D01*
X138365238Y-86492380D01*
X138079523Y-86492380D01*
X137984285Y-86444761D01*
X137936666Y-86397142D01*
%TO.C,D2*%
X137031904Y-79992380D02*
X137031904Y-78992380D01*
X137270000Y-78992380D01*
X137412857Y-79040000D01*
X137508095Y-79135238D01*
X137555714Y-79230476D01*
X137603333Y-79420952D01*
X137603333Y-79563809D01*
X137555714Y-79754285D01*
X137508095Y-79849523D01*
X137412857Y-79944761D01*
X137270000Y-79992380D01*
X137031904Y-79992380D01*
X137984285Y-79087619D02*
X138031904Y-79040000D01*
X138127142Y-78992380D01*
X138365238Y-78992380D01*
X138460476Y-79040000D01*
X138508095Y-79087619D01*
X138555714Y-79182857D01*
X138555714Y-79278095D01*
X138508095Y-79420952D01*
X137936666Y-79992380D01*
X138555714Y-79992380D01*
%TO.C,D1*%
X137031904Y-73492380D02*
X137031904Y-72492380D01*
X137270000Y-72492380D01*
X137412857Y-72540000D01*
X137508095Y-72635238D01*
X137555714Y-72730476D01*
X137603333Y-72920952D01*
X137603333Y-73063809D01*
X137555714Y-73254285D01*
X137508095Y-73349523D01*
X137412857Y-73444761D01*
X137270000Y-73492380D01*
X137031904Y-73492380D01*
X138555714Y-73492380D02*
X137984285Y-73492380D01*
X138270000Y-73492380D02*
X138270000Y-72492380D01*
X138174761Y-72635238D01*
X138079523Y-72730476D01*
X137984285Y-72778095D01*
%TD*%
M02*
